<svg xmlns="http://www.w3.org/2000/svg" xmlns:xlink="http://www.w3.org/1999/xlink" width="258" height="308" viewBox="0 0 258 308">
  <defs>
    <clipPath id="clip-vorterix">
      <rect width="258" height="308"/>
    </clipPath>
  </defs>
  <g id="vorterix" clip-path="url(#clip-vorterix)">
    <g id="Capa_2" data-name="Capa 2" transform="translate(-1379.213 -359.269)">
      <g id="tTf1SO">
        <g id="Grupo_161" data-name="Grupo 161">
          <path id="Trazado_442" data-name="Trazado 442" d="M1630.282,399.8v2.211q0,29.455.025,58.91a3.05,3.05,0,0,1-1.669,3.046q-58.417,34.983-116.771,70.073a2.858,2.858,0,0,1-3.426.029q-52.156-31.389-104.365-62.69c-4.336-2.6-8.681-5.191-12.978-7.857a2.362,2.362,0,0,1-1.047-1.64q-.055-30.734.006-61.467a3,3,0,0,1,.11-.419c.607.319,1.184.587,1.726.912q50.319,30.2,100.632,60.4c5.434,3.262,10.887,6.493,16.3,9.791a2.191,2.191,0,0,0,2.631.016q56.09-33.729,112.215-67.4C1625.748,402.474,1627.839,401.247,1630.282,399.8Z"/>
          <path id="Trazado_443" data-name="Trazado 443" d="M1630.28,606.686l-110.5-65.776c1.435-.9,2.679-1.716,3.947-2.485q23.444-14.222,46.874-28.461a2.438,2.438,0,0,1,2.943,0q27.429,16.278,54.923,32.446a3.271,3.271,0,0,1,1.855,3.288c-.06,19.574-.039,39.148-.038,58.723Z"/>
          <path id="Trazado_444" data-name="Trazado 444" d="M1500.455,540.937,1390.144,606.6c-.056-.765-.125-1.274-.125-1.783q-.009-29.724-.042-59.448a2.824,2.824,0,0,1,1.639-2.827Q1419.339,526.225,1447,509.8a2.107,2.107,0,0,1,2.493-.037q25.035,15.294,50.1,30.539C1499.794,540.425,1499.975,540.582,1500.455,540.937Z"/>
          <path id="Trazado_445" data-name="Trazado 445" d="M1437.3,661.871a16.357,16.357,0,0,1-.209-32.709,16.355,16.355,0,0,1,.209,32.709Zm10.164-16.1a10.237,10.237,0,1,0-10.352,10.171A10.435,10.435,0,0,0,1447.464,645.766Z"/>
          <path id="Trazado_446" data-name="Trazado 446" d="M1480.661,648.69c1.95,3.644,3.828,7.124,5.674,10.62.9,1.7.6,1.943-1.324,2.19-3.1.4-5.12-.446-6.2-3.648-.83-2.458-2.349-4.674-3.391-7.073a2.472,2.472,0,0,0-2.9-1.766,25.1,25.1,0,0,1-2.879.019v5.653c0,1.708-.033,3.416.01,5.122.028,1.132-.364,1.688-1.582,1.666-4.985-.086-4.4.6-4.414-4.163-.021-8.476.037-16.952-.04-25.428-.017-1.763.517-2.334,2.291-2.275,3.716.125,7.438.02,11.158.045,4.856.032,8.672,2.842,9.828,7.2,1.179,4.444-.675,8.59-4.967,11.1Zm-10.917-4.663c2.559,0,4.925.059,7.286-.016a4.3,4.3,0,0,0,4.228-4.192,4.082,4.082,0,0,0-3.406-4.5,77.7,77.7,0,0,0-8.108-.067Z"/>
          <path id="Trazado_447" data-name="Trazado 447" d="M1572.824,648.677c1.913,3.586,3.756,7.012,5.572,10.452,1.047,1.982.809,2.087-1.347,2.387-3.225.45-4.692-.587-6.119-3.779-1.087-2.487-2.257-4.452-3.246-6.741-.884-1.789-1.322-1.985-3.143-1.985-1.067,0-1.676.024-2.732.024,0,3.449.005,6.722,0,9.994-.005,2.4-.035,2.429-2.458,2.43-3.839,0-3.539.338-3.54-3.551,0-8.659.036-17.318-.032-25.976-.013-1.706.422-2.388,2.252-2.32,3.593.133,7.194.029,10.792.036,5.216.01,9.031,2.688,10.228,7.164,1.222,4.571-.677,8.654-5.256,11.3Zm-10.9-4.743c.434.043.724.1,1.015.1,2.125,0,4.252.057,6.374-.028a4.307,4.307,0,0,0,4.1-4.109,4.174,4.174,0,0,0-3.484-4.628c-2.627-.241-5.293-.057-8.007-.057Z"/>
          <path id="Trazado_448" data-name="Trazado 448" d="M1631.742,629.645a18.282,18.282,0,0,1-.97,2.264c-2.418,3.873-4.8,7.768-7.35,11.557a2.65,2.65,0,0,0,.037,3.407c2.639,4.092,5.179,8.249,7.723,12.4a7.746,7.746,0,0,1,.558,1.657c-.6.175-1.191.393-1.8.52-3.251.676-5.3-.6-6.718-3.627a73.007,73.007,0,0,0-4.387-7.184c-1.96,3.208-3.859,6.177-5.6,9.235a2.678,2.678,0,0,1-2.92,1.6c-.963-.106-1.948.011-2.922-.023-1.57-.055-1.87-.572-1.046-1.913,2.616-4.253,5.217-8.516,7.933-12.705a2.637,2.637,0,0,0,.02-3.393c-2.535-3.8-4.929-7.688-7.336-11.57a7.881,7.881,0,0,1-.587-1.8,7.985,7.985,0,0,1,1.681-.41c4.8-.131,4.791-.116,7.281,4.085,1.115,1.882,2.247,3.753,3.492,5.83,1.8-2.945,3.569-5.688,5.171-8.525a2.49,2.49,0,0,1,2.627-1.434C1628.186,629.708,1629.752,629.645,1631.742,629.645Z"/>
          <path id="Trazado_449" data-name="Trazado 449" d="M1530.947,648.045v7.919h4.73c2.561,0,5.122.042,7.682-.017,1.265-.029,1.729.461,1.718,1.717-.039,4.434.282,3.774-3.638,3.792-4.817.022-9.634-.04-14.45.032-1.495.022-2.025-.435-2.016-1.978q.087-13.992,0-27.985c-.008-1.432.43-1.923,1.877-1.906q8.139.1,16.279,0c1.381-.014,1.981.369,1.955,1.854-.075,4.219.259,3.637-3.6,3.658-3.46.019-6.919,0-10.487,0v7.36q4.165,0,8.325,0c3.626,0,4.284.777,3.479,4.422a1.978,1.978,0,0,1-1.5,1.067c-2.739.11-5.485.056-8.229.058C1532.413,648.046,1531.759,648.045,1530.947,648.045Z"/>
          <path id="Trazado_450" data-name="Trazado 450" d="M1400.139,649.851c1.123-2.505,2.042-4.538,2.946-6.577,1.8-4.064,3.633-8.116,5.368-12.209a1.984,1.984,0,0,1,2.163-1.439c5.384.106,5.307-.627,2.954,4.521-3.976,8.7-7.916,17.406-11.918,26.088a7.487,7.487,0,0,1-1.458,1.63c-.547-.556-1.3-1.016-1.609-1.683q-6.486-14.108-12.859-28.265c-.916-2.023-.714-2.026,1.494-2.327,3.122-.425,4.6.8,5.706,3.694C1395.017,638.73,1397.561,644,1400.139,649.851Z"/>
          <path id="Trazado_451" data-name="Trazado 451" d="M1502.293,635.136c-2.234,0-4.18-.044-6.122.016-1.187.037-1.615-.429-1.6-1.6.057-4.77-.355-3.844,3.661-3.888,5.236-.058,10.474.031,15.71-.043,1.5-.022,2.036.444,2.005,1.97-.082,4.119.2,3.511-3.521,3.55-1.329.013-2.659,0-4.225,0v2.1c0,7.307-.041,14.614.032,21.92.017,1.687-.386,2.419-2.231,2.346-4.24-.169-3.688.478-3.7-3.71-.024-6.819-.006-13.639-.006-20.459Z"/>
          <path id="Trazado_452" data-name="Trazado 452" d="M1596.2,645.593c0,4.626-.04,9.253.023,13.879.02,1.487-.467,2.078-2,2.019-4.413-.169-4.049.7-4.052-3.946-.005-8.522.046-17.045-.04-25.567-.018-1.836.5-2.451,2.371-2.37,4.092.175,3.691-.484,3.7,3.749C1596.209,637.436,1596.2,641.514,1596.2,645.593Z"/>
        </g>
      </g>
    </g>
  </g>
</svg>
