<svg width="82" height="17" viewBox="0 0 82 17" fill="none" xmlns="http://www.w3.org/2000/svg">
<path d="M30.7146 0.628909C31.1666 0.605011 31.6095 0.761563 31.946 1.06415C32.2826 1.36673 32.4852 1.79058 32.5093 2.2425C32.5151 2.52058 32.4474 2.79526 32.313 3.0388C32.1048 3.40679 31.8211 3.72652 31.4805 3.97697C31.0671 4.23123 30.5956 4.37583 30.1108 4.39707C29.8533 4.39269 29.9631 4.37451 29.9634 4.31128C29.9731 4.19969 29.9732 4.08747 29.9637 3.97586C29.9183 3.82843 29.8291 3.69833 29.7079 3.60292C29.6813 3.5801 29.6463 3.55098 29.6068 3.51561C29.5025 3.44415 29.4068 3.36075 29.3219 3.26709L29.3028 3.25597C29.0553 2.9753 28.9172 2.61491 28.9137 2.24075C28.9408 1.78895 29.1452 1.36614 29.4825 1.06429C29.8198 0.762439 30.2626 0.605967 30.7146 0.628909Z" fill="#FB0D01"/>
<path d="M54.4883 0.924993C54.8472 0.90834 55.2004 1.01968 55.485 1.23918C55.7695 1.45867 55.9668 1.77206 56.0418 2.12348C56.0937 2.5724 55.9747 3.02442 55.7084 3.38955C55.4422 3.75469 55.0482 4.00616 54.6048 4.09391C54.4549 4.13105 54.3011 4.14992 54.1466 4.15012C53.7873 4.16652 53.4339 4.05502 53.1491 3.83545C52.8642 3.61587 52.6664 3.30244 52.5909 2.95082C52.5382 2.50188 52.6569 2.0496 52.9233 1.68442C53.1897 1.31924 53.5842 1.06809 54.0278 0.981166C54.1785 0.94418 54.3331 0.925322 54.4883 0.924993Z" fill="#FB0D01"/>
<path d="M80.8516 10.2584C80.8701 10.2587 81.2308 10.2764 80.6951 11.027C80.1595 11.7775 78.8006 13.5922 77.5718 14.2392C76.8067 14.6597 75.9521 14.8911 75.0793 14.9141C74.9234 14.9151 74.7676 14.9039 74.6133 14.8807C74.323 14.8291 74.0468 14.7168 73.8029 14.5512C73.5589 14.3856 73.3526 14.1704 73.1975 13.9196C73.0967 13.6573 73.0405 13.3801 73.031 13.0993C72.7837 13.0357 72.6892 13.0634 72.5773 13.1564C72.3105 13.3832 70.867 14.5502 69.5358 14.5499C68.0473 14.4629 67.3729 13.8962 67.0618 13.368C66.8585 12.9126 66.6982 12.4392 66.583 11.9539C66.5529 11.911 66.5325 11.8389 66.4307 11.8395C66.3035 11.8373 66.0494 11.9472 65.4966 12.3481C64.5394 13.0359 62.1818 14.8491 59.8666 14.8483C59.753 14.8463 59.6395 14.8416 59.526 14.834C57.3843 14.6534 56.6223 13.6139 56.3296 13.184C56.0639 12.6548 55.8624 12.0958 55.7293 11.5188C55.7103 11.4722 55.6779 11.4323 55.6363 11.4042C55.5946 11.376 55.5455 11.3608 55.4953 11.3605C55.3376 11.3794 55.1926 11.4561 55.0883 11.5757C53.735 12.6424 52.2848 13.5798 50.7565 14.3757C50.3257 14.5275 49.8734 14.6096 49.4167 14.6189C49.1214 14.6599 48.821 14.5981 48.5659 14.4438C48.3108 14.2895 48.1166 14.0521 48.0159 13.7715C47.9107 13.443 47.8781 13.0957 47.9202 12.7534C47.9624 12.4111 48.0784 12.082 48.2601 11.789C48.4029 11.4675 48.736 10.6973 48.5471 10.6979C48.0379 11.024 45.3968 14.2691 42.9527 14.6402C42.5346 14.7084 42.112 14.7456 41.6883 14.7513C40.6087 14.7499 40.0584 14.4074 39.7944 13.6548C39.464 12.716 40.1484 11.3827 40.3886 10.9518C40.6289 10.5209 42.1759 7.62275 42.2579 7.47067C42.2676 7.44462 42.4669 6.96908 42.2032 6.96922C42.0479 6.9942 41.9017 7.05894 41.7789 7.15713C40.4919 8.21133 39.3016 9.37835 38.2221 10.6443C37.3201 11.8588 36.5052 13.1356 35.7834 14.4651C35.7422 14.551 35.6814 14.6259 35.6057 14.6837C35.5301 14.7415 35.4418 14.7806 35.3481 14.7978C35.2562 14.8055 34.8798 14.8076 34.4225 14.8075C33.5009 14.8065 32.3041 14.7969 32.2409 14.7959C32.2101 14.7953 32.1326 14.7701 32.3119 14.3837C32.5194 13.933 34.4759 9.57877 34.5801 9.34917C34.5986 9.30553 34.9399 8.45991 34.7063 8.45979C34.2186 8.70369 33.5608 9.28866 33.2492 9.42681C32.8727 9.5912 32.485 9.72893 32.0892 9.83897C31.9346 9.86025 31.4298 10.7008 31.1859 11.0745C30.942 11.4483 28.9101 14.3814 26.8355 14.6585C26.5112 14.7018 26.1844 14.7243 25.8572 14.7259C25.4335 14.7734 25.0045 14.7204 24.605 14.5711C24.2056 14.4219 23.847 14.1807 23.5581 13.867C23.2452 13.415 23.0556 12.8891 23.008 12.3414C22.9926 12.0666 23.0091 11.5471 23.0104 11.5194C23.0059 11.5116 22.926 11.3591 22.8048 11.3616C22.5257 11.542 19.4768 14.1439 18.0937 14.6109C17.4931 14.8401 16.8603 14.974 16.2183 15.0078C15.8704 15.0411 15.5221 14.9476 15.2377 14.7443C14.9533 14.541 14.7519 14.2418 14.6708 13.9018C14.2275 12.3981 15.2507 10.7288 15.8965 9.85136C16.5423 8.97389 17.4137 7.70463 17.458 7.64137C17.4737 7.62159 17.7554 7.24925 17.4598 7.16941C17.3422 7.14237 17.2218 7.1297 17.1011 7.1317C16.9955 7.13128 16.89 7.13798 16.7853 7.15178C16.7507 7.18975 16.0937 7.91124 14.9454 9.22516C13.7971 10.5391 10.2131 14.3157 6.94424 14.8833C6.30348 14.9981 5.65408 15.0581 5.00312 15.0624C4.18702 15.1218 3.3686 14.9842 2.61683 14.6611C1.86506 14.338 1.20198 13.8389 0.683466 13.2059C-0.417053 11.799 0.119403 9.23147 1.01157 7.8785C2.02562 6.34173 4.28411 3.78035 7.32678 3.17808C7.92251 3.05234 8.52911 2.98516 9.13792 2.9775C10.8693 2.9784 11.6416 3.64244 11.9665 4.12535C12.2766 4.72227 12.3724 5.40749 12.2381 6.06659C12.1038 6.72568 11.7475 7.31876 11.2286 7.74678C9.64853 9.14359 8.75723 9.31199 7.80857 9.31514C7.44842 9.35698 7.08421 9.28493 6.76711 9.10912C6.45001 8.93331 6.19595 8.66257 6.04064 8.33495C5.97277 8.09708 5.96869 7.84554 6.02882 7.6056C6.08894 7.36566 6.21115 7.14576 6.38316 6.968C6.56166 6.75116 6.78773 6.57837 7.04381 6.46302C7.29989 6.34767 7.5791 6.29286 7.85978 6.30286C7.94625 6.3026 8.03268 6.3069 8.11869 6.31575C8.31691 6.30985 8.51247 6.36252 8.68092 6.46716C8.84937 6.5718 8.98323 6.72378 9.06577 6.90409C9.14354 7.09282 9.11641 7.23735 9.159 7.31751C9.3618 7.32949 9.56374 7.28257 9.74049 7.1824C9.78497 7.15154 10.6196 6.55415 10.6473 5.87441C10.6421 5.67499 10.5955 5.47883 10.5105 5.29834C10.4255 5.11786 10.304 4.95698 10.1536 4.82589C10.0033 4.6948 9.82733 4.59636 9.63694 4.53679C9.44655 4.47723 9.24587 4.45783 9.0476 4.47984C8.88016 4.47943 8.71338 4.5007 8.5514 4.54313C7.65415 4.78932 5.1172 5.63001 4.05118 8.04585C2.98516 10.4617 4.23585 11.7909 4.99833 12.0777C5.2501 12.1551 5.51306 12.1898 5.77629 12.1804C8.13048 12.0188 10.3639 11.0781 12.1241 9.5065C15.3779 6.82939 15.7313 6.7282 15.6314 6.20978C15.4774 5.61375 15.5121 4.98463 15.7306 4.40913C15.8691 4.1706 16.064 3.96977 16.2984 3.82433C16.5327 3.6789 16.7992 3.59333 17.0744 3.57515C17.2507 3.57433 17.4242 3.61898 17.5781 3.7048C18.0272 3.98856 18.4122 4.36283 18.7086 4.80372C18.7997 4.88702 18.8607 4.92585 18.9286 4.92623C19.0506 4.90487 19.1663 4.85651 19.2672 4.78468C19.5783 4.63279 19.9186 4.55042 20.2647 4.54328C20.5065 4.53151 20.7449 4.60488 20.9383 4.75062C21.2221 5.00305 21.423 5.33537 21.5145 5.70398C21.6061 6.0726 21.5842 6.46029 21.4515 6.81619C21.0326 7.78884 20.4773 8.69685 19.8023 9.51287C19.3001 10.1607 18.9013 10.8823 18.6199 11.6522C18.5991 11.9673 18.6714 12.4351 19.0446 12.4352C19.1149 12.4362 19.1849 12.4257 19.2518 12.4041C20.5517 11.6276 21.7508 10.6937 22.822 9.62359C23.4147 9.06174 23.9427 8.4354 24.3962 7.75623C24.7558 7.15694 26.5012 5.29019 28.1952 5.08376C28.5115 5.04413 28.8299 5.02379 29.1487 5.02285C30.0281 4.94285 30.9054 5.19826 31.6044 5.73787C31.9623 6.13288 32.1718 6.63997 32.197 7.17239C32.2279 7.5778 32.1365 7.73512 32.2746 7.8277C32.3489 7.86182 32.4305 7.87674 32.5121 7.87107C33.1289 7.81441 33.7097 7.55561 34.1642 7.13488C34.7196 6.72265 35.2325 6.25628 35.6956 5.74264C35.942 5.46787 36.1734 5.18013 36.389 4.88064L39.9674 4.88286C39.9844 4.88314 40.3125 4.908 40.2799 5.14421C40.0344 5.78075 39.7488 6.40106 39.4247 7.00142C39.3141 7.1623 39.2537 7.35237 39.2511 7.54758C39.3608 7.56987 39.4746 7.55754 39.5769 7.5123C39.6792 7.46707 39.765 7.39116 39.8223 7.29507C40.0463 7.00119 42.5095 4.8289 43.7038 4.7528C43.8544 4.74302 44.008 4.73792 44.1622 4.73746C45.2319 4.73867 46.3172 4.99774 46.3437 5.75167C46.3769 6.61446 45.5282 8.35995 45.0359 9.23617C44.6271 9.93576 44.2545 10.6558 43.9195 11.3936C43.7461 11.841 43.6227 12.2924 43.8485 12.395C44.8787 12.0815 45.8105 11.5073 46.5537 10.7281C47.9483 9.38873 49.2633 7.96902 50.4921 6.47619C51.1309 5.55619 51.704 4.86952 52 4.83137C52.0982 4.81838 52.4376 4.81413 52.8487 4.81494C53.6677 4.81499 54.7117 4.83119 54.7664 4.83212C54.7941 4.83259 55.3168 4.89084 55.0927 5.28343C54.8685 5.67603 52.4707 10.1747 52.344 10.4108C52.3241 10.4475 51.9461 11.1367 51.9945 11.3697C52.0319 11.5338 52.1098 11.7572 52.3929 11.7559C52.5694 11.7459 52.7413 11.6961 52.8959 11.6102C53.9613 10.9611 54.959 10.2068 55.874 9.35872C56.2058 8.98801 57.5643 6.78614 58.9398 5.94499C59.897 5.28073 61.0258 4.90754 62.1903 4.87041C62.5165 4.87349 62.8419 4.90483 63.1627 4.96406C63.7944 5.06674 64.3772 5.36746 64.8269 5.82284C65.2766 6.27821 65.5699 6.86469 65.6647 7.49763C65.6811 8.18404 65.4475 8.85302 65.0074 9.38C64.5673 9.90698 63.9506 10.256 63.2722 10.3621C63.1046 10.3814 62.9361 10.3914 62.7674 10.3921C61.5604 10.3909 61.0668 9.8033 60.9745 8.97345C60.96 8.67038 61.0558 8.37231 61.2441 8.13445C61.4325 7.8966 61.7007 7.73507 61.9991 7.67979C62.2124 7.65821 62.4279 7.68011 62.6325 7.74417C62.8372 7.80822 63.0267 7.91311 63.1897 8.05248C63.2355 8.11874 63.2955 8.1739 63.3655 8.21393C63.4354 8.25395 63.5134 8.27781 63.5937 8.28377C63.6733 8.2801 63.7518 8.26319 63.8259 8.23373C63.9504 8.17695 64.0596 8.09159 64.1449 7.9846C64.2301 7.87761 64.2888 7.75202 64.3164 7.61803C64.3439 7.48405 64.3394 7.34546 64.3033 7.21353C64.2672 7.08161 64.2004 6.96008 64.1084 6.85883C63.6784 6.49147 63.1245 6.3017 62.5596 6.32812C62.1708 6.32687 61.7861 6.4073 61.4304 6.5642C60.8439 6.81841 60.3135 7.18625 59.87 7.6465C59.4264 8.10675 59.0783 8.65029 58.8459 9.24575C58.479 10.4611 58.4207 12.618 60.1321 12.7944C60.3231 12.8138 60.5126 12.8225 60.6985 12.8225C62.0483 12.7892 63.3594 12.3649 64.4728 11.6011C65.1673 11.147 65.833 10.6504 66.4662 10.1141C67.0189 8.22126 68.256 6.60168 69.9368 5.57049C70.9917 4.98188 72.1792 4.67187 73.3871 4.66975C73.7346 4.66403 74.0815 4.69813 74.4212 4.77139C74.8689 4.93566 75.2586 5.22757 75.5421 5.61102C75.7014 5.82493 75.9319 5.97491 76.192 6.0339C76.5281 5.95401 76.4718 5.45099 76.4818 5.27378C76.4958 5.04265 76.5517 4.97496 77.1277 4.97627C77.1933 4.97739 77.265 4.9786 77.3452 4.97997C77.5595 4.98361 78.1023 4.98898 78.6322 4.98951C79.2676 4.98951 79.8523 4.98711 79.8831 4.98687C79.914 4.98662 80.3456 5.00013 79.9158 5.69309C79.4624 6.41881 77.0539 11.1332 76.8244 11.5673C76.5494 11.9379 76.3895 12.3812 76.3647 12.8421C76.3793 12.9436 76.43 13.0364 76.5074 13.1036C76.5849 13.1708 76.684 13.2078 76.7865 13.2079C76.8988 13.2044 77.0085 13.1731 77.1058 13.1169C77.7769 12.6849 78.3695 12.1418 78.8583 11.5109C79.1949 11.0832 79.5003 10.3573 79.6394 10.2964C79.9123 10.2569 80.1882 10.2425 80.4638 10.2534C80.6789 10.257 80.8423 10.2598 80.8493 10.2599M73.6467 10.7236C74.8585 9.39765 75.2655 7.63771 74.5501 6.80574C74.4228 6.66007 74.2645 6.54479 74.0869 6.46836C73.9092 6.39193 73.7166 6.35631 73.5234 6.36412C73.0452 6.41047 72.581 6.5517 72.158 6.77956C71.735 7.00741 71.3617 7.31732 71.0599 7.69115C69.8388 9.02234 69.4319 10.7738 70.1495 11.6135C70.2771 11.7582 70.4353 11.8726 70.6126 11.9485C70.79 12.0243 70.982 12.0597 71.1747 12.052C71.6543 12.0057 72.1198 11.8643 72.5442 11.6363C72.9686 11.4082 73.3434 11.098 73.6467 10.7236ZM30.2872 10.0466C30.3419 9.86556 30.095 9.64466 29.9011 9.48403C29.768 9.33401 29.6696 9.15649 29.6129 8.96411C29.5562 8.77174 29.5425 8.56922 29.573 8.37098C29.6638 7.81601 29.8816 7.28949 30.2092 6.83242C30.3208 6.66542 30.1845 6.60835 29.9716 6.60858C29.756 6.61515 29.5422 6.64909 29.3352 6.70959C28.6266 6.97002 27.9958 7.40619 27.502 7.97716C26.2119 9.328 25.6836 11.0566 26.3204 11.8371C26.4293 11.9636 26.5657 12.0635 26.7191 12.1292C26.8725 12.1949 27.0389 12.2246 27.2055 12.2161C28.2214 12.0937 29.1518 11.5868 29.8055 10.7996L29.8361 10.7693C29.905 10.6913 29.9671 10.6074 30.0216 10.5187C30.1314 10.3738 30.2208 10.2144 30.2872 10.0451" fill="#FB0D01"/>
</svg>
