<?xml version="1.0" encoding="UTF-8"?><svg id="Capa_1" xmlns="http://www.w3.org/2000/svg" viewBox="0 0 3207.46 670.65"><defs><style>.cls-1{fill:#fff;stroke-width:0px;}</style></defs><path class="cls-1" d="m1968.48,484.49c-29.88,101.99-94.36,166.77-201.94,182.04-58.71,8.34-113.17-6.76-161.48-41.51-47.96-34.49-78.33-81.2-93.07-138.39-4.71,20.23-10.89,39.7-20.13,58.03-31.88,63.21-81,104.99-150.84,120.96-43.7,10-84.61,2.63-123.29-19.18-9.28-5.23-18.37-10.78-27.55-16.19-1.53-.9-3.06-1.8-5.37-3.16v34.73h-147.1V28.95h147.08v201.06c2.81-1.65,4.76-2.82,6.73-3.94,73.12-41.61,145.43-37.7,215.45,6.44,52.93,33.37,86.51,81.96,102.52,142.55.37,1.38.84,2.74,1.63,5.31,16.9-68.75,54.34-121.18,114.94-156.2,35.68-20.62,74.51-30.45,115.59-29.95,54.87.66,103.84,18.53,146.08,53.73,41.99,34.99,68.37,79.71,80.51,133.22,3.74-12.73,6.71-25.24,11.07-37.25,19.44-53.51,52.57-96.01,103.29-122.95,55.87-29.67,113.3-31.43,171.15-5.53,12.41,5.56,24.08,12.77,36.09,19.24,1.58.85,3.12,1.77,5.25,2.98v-29.17h145.38v453.28h-144.87v-26.04c-66.63,41.7-135.97,45.39-206.16,14.65-72.02-31.54-107.43-91.71-120.96-165.88Zm-228.61-142.49c-6.09.82-12.29,1.16-18.25,2.52-47.07,10.71-75.96,56.84-66.32,105.64,10.48,53.07,66.85,84.02,116.24,63.76,36.81-15.1,58.11-53.87,53.96-93.04-4.6-43.39-41.98-78.22-85.63-78.88Zm-375.12,94.08c.03-47.62-38.62-87.05-85.38-87.12-49.31-.08-88.26,38.16-88.28,86.68-.02,48.23,38.78,87.2,86.84,87.22,47.77.02,86.79-38.98,86.82-86.77Zm912.02-4.81c-.02-47.87-38.33-86.77-85.49-86.81-47.61-.04-86.1,38.69-86.17,86.7-.07,48.06,38.34,87.02,85.8,87.02,47.58,0,85.87-38.76,85.86-86.91Z"/><path class="cls-1" d="m3060.82,230.03V28.94h146.64v632.82h-146.57v-34.91c-6.59,4.04-12.17,7.56-17.84,10.93-21.54,12.83-43.87,23.93-68.58,29.17-31.34,6.64-62.18,2.8-92.01-7.34-68.4-23.25-114.47-70.49-138.3-137.76-31.18-88.03-18.29-170.2,41.45-242.99,34.78-42.37,79.74-69.26,134.18-78.51,48.01-8.16,93.04.97,134.78,26.12,1.68,1.01,3.41,1.95,6.24,3.57Zm-6.4,206.01c.06-47.25-38.72-86.98-84.99-87.08-49.56-.11-88.77,38.1-88.98,86.69-.2,47.51,39.16,87.14,86.58,87.2,48.14.06,87.33-38.88,87.39-86.81Z"/><path class="cls-1" d="m146.75,229.87c6.81-3.74,12.64-7.22,18.7-10.24,67.38-33.58,133.75-29.1,197.24,8.93,65.28,39.1,104.08,97.91,113.97,173.3,10.25,78.15-11.15,147.86-66.66,204.91-42.12,43.3-94.42,64.31-155.02,63.01-26.01-.56-49.76-9.97-72.46-21.96-11.87-6.27-23.33-13.32-35.56-20.36v34.25H0V28.96h146.75v200.91Zm6.33,206.24c.25,48.32,39.37,86.92,87.93,86.75,46.98-.16,86.42-40.14,86.07-87.24-.37-48.8-39.79-86.95-89.56-86.65-45.89.27-84.67,40.29-84.43,87.14Z"/><path class="cls-1" d="m678.54,28.89h146.41v632.84h-146.41V28.89Z"/><path class="cls-1" d="m858.46,28.89h146.45v632.82h-146.45V28.89Z"/><path class="cls-1" d="m2622.28,661.85h-146.74V208.15h146.62v38.06c5.42-4.87,11.01-9.98,16.69-14.99,22.52-19.85,48.32-30.87,78.83-29.37,3.67.18,5.21,1.09,5.19,5.2-.14,49.01-.09,98.01-.1,147.02,0,1.15-.15,2.31-.24,3.56-9.66,1.12-19.29,1.77-28.74,3.44-19.18,3.38-36.82,10.38-51.14,24.16-13.83,13.3-20.4,29.63-20.39,48.77.04,73.84.02,147.68.02,221.53v6.32Z"/><path class="cls-1" d="m496.09,661.8V208.27h146.58v453.53h-146.58Z"/><path class="cls-1" d="m657.75,88.68c-.09,49.69-39.71,88.6-90.46,88.14-49.14-.45-87.32-42.35-86.39-90.24C481.83,38.85,521.27-.11,570.14,0c48.25.11,87.7,40.04,87.61,88.68Z"/><path class="cls-1" d="m2933.11,56.87c20.51,0,40.8-1.62,60.71.4,26.43,2.68,39.39,32.39,25.05,54.05-4.42,6.68-10.84,10.64-18.97,13.52,8.35,14.51,16.57,28.78,25.25,43.87-11.9,0-22.82.12-33.73-.16-1.22-.03-2.73-2.13-3.53-3.58-6.24-11.38-12.31-22.85-18.52-34.24-.81-1.49-2.16-2.7-3.25-4.04-.47.22-.94.44-1.41.66v41.02h-31.61V56.87Zm31.65,25.95v23.14c6.67-.34,13.13-.23,19.45-1.11,5.68-.8,8.26-5.03,8.13-11.32-.12-5.73-3.13-10.09-8.5-10.58-6.21-.57-12.5-.13-19.07-.13Z"/><path class="cls-1" d="m2886.05,55.86c13.59,37.45,27.12,74.73,40.96,112.85-11.11,0-21.35.08-31.59-.13-.93-.02-2.21-1.71-2.68-2.89-1.39-3.56-2.63-7.19-3.61-10.89-.84-3.17-2.29-4.59-5.88-4.49-10.31.27-20.64.19-30.96.03-3.08-.05-4.87.68-5.78,3.92-1.35,4.77-1.93,11.31-5.24,13.55-3.59,2.43-9.92.85-15.06.92-5.48.07-10.97.02-17.21.02.55-1.95.89-3.48,1.42-4.93,12.62-34.67,25.3-69.32,37.83-104.02,1.07-2.98,2.42-4.07,5.64-4,10.64.22,21.29.08,32.16.08Zm-18.31,34.54c-4.11,12.57-7.8,23.85-11.56,35.34h23.32c-3.86-11.59-7.57-22.75-11.75-35.34Z"/></svg>